Coordinates
version=1
nRows=27
nColumns=38
inDegrees=no

Units are S.I. units (second, meters, Newtons, ...)
If the header above contains a line with 'inDegrees', this indicates whether rotational values are in degrees (yes) or radians (no).

endheader
time	pelvis_tilt	pelvis_list	pelvis_rotation	pelvis_tx	pelvis_ty	pelvis_tz	hip_flexion_r	hip_adduction_r	hip_rotation_r	knee_angle_r	ankle_angle_r	subtalar_angle_r	mtp_angle_r	hip_flexion_l	hip_adduction_l	hip_rotation_l	knee_angle_l	ankle_angle_l	subtalar_angle_l	mtp_angle_l	lumbar_extension	lumbar_bending	lumbar_rotation	arm_flex_r	arm_add_r	arm_rot_r	elbow_flex_r	pro_sup_r	wrist_flex_r	wrist_dev_r	arm_flex_l	arm_add_l	arm_rot_l	elbow_flex_l	pro_sup_l	wrist_flex_l	wrist_dev_l
1.25	0.189762	-0.0233813	-0.0259956	0.483991	1.02455	-0.300241	-0.260333	0.00658978	-0.0872618	-0.784419	-0.247105	-0.031798	-0.00405963	0.172213	0.0750006	0.00672658	-0.441899	0.209357	-0.0719804	0.00213752	-0.45082	0.0449151	0.158745	-0.0917234	-0.543435	0.193706	1.98863	1.4066	-0.0266009	-0.00463286	-0.541182	-0.395738	-0.0240871	2.07735	1.68076	0.0491703	-0.0193245
1.25833	0.191929	-0.0207743	-0.0235036	0.483783	1.02054	-0.300195	-0.232675	-0.00537142	-0.109328	-0.860211	-0.257612	-0.031798	-0.00405963	0.165241	0.0811433	0.0103539	-0.447509	0.203971	-0.0719804	0.00213752	-0.452996	0.0399547	0.147568	-0.10317	-0.540545	0.190085	1.98467	1.40656	-0.0266009	-0.00463286	-0.53931	-0.403052	-0.0357297	2.08803	1.67988	0.0491703	-0.0193245
1.26667	0.194608	-0.0157655	-0.0205289	0.483335	1.01587	-0.300236	-0.203681	-0.0209207	-0.130564	-0.938683	-0.263225	-0.031798	-0.00405963	0.161064	0.0906543	0.0163243	-0.464699	0.201676	-0.0719804	0.00213752	-0.456198	0.0326725	0.134308	-0.115207	-0.537216	0.185354	1.98006	1.40704	-0.0266009	-0.00463286	-0.536078	-0.412232	-0.0474282	2.09951	1.67774	0.0491703	-0.0193245
1.275	0.197637	-0.00848015	-0.0168739	0.482619	1.01064	-0.300366	-0.173529	-0.0393773	-0.149904	-1.01864	-0.263457	-0.031798	-0.00405963	0.15973	0.103279	0.0242837	-0.492572	0.204426	-0.0719804	0.00213752	-0.460385	0.0233613	0.118938	-0.127681	-0.533417	0.17959	1.97441	1.40789	-0.0266009	-0.00463286	-0.531041	-0.423255	-0.0587656	2.1112	1.67445	0.0491703	-0.0193245
1.28333	0.200921	0.00080319	-0.0123566	0.481636	1.00507	-0.300575	-0.142364	-0.0597307	-0.166272	-1.0988	-0.258258	-0.031798	-0.00405963	0.160827	0.118502	0.0336433	-0.529339	0.21351	-0.0719804	0.00213752	-0.465549	0.0124476	0.101499	-0.140392	-0.529042	0.172858	1.96721	1.40892	-0.0266009	-0.00463286	-0.523658	-0.435983	-0.0692377	2.12226	1.67026	0.0491703	-0.0193245
1.29167	0.204442	0.0117353	-0.00685752	0.480412	0.999397	-0.300855	-0.110333	-0.0807282	-0.178684	-1.17782	-0.248084	-0.031798	-0.00405963	0.16346	0.135615	0.0437267	-0.572341	0.229171	-0.0719804	0.00213752	-0.471692	0.00045834	0.0821319	-0.153134	-0.523911	0.165203	1.95785	1.40988	-0.0266009	-0.00463286	-0.51332	-0.450176	-0.0782666	2.13177	1.66555	0.0491703	-0.0193245
1.3	0.208171	0.0238978	-0.000354251	0.47899	0.993852	-0.301188	-0.0775867	-0.101035	-0.186368	-1.25431	-0.233821	-0.031798	-0.00405963	0.166353	0.153814	0.0539152	-0.618301	0.250543	-0.0719804	0.00213752	-0.47879	-0.0120636	0.0611045	-0.165733	-0.517794	0.156663	1.94573	1.4105	-0.0266009	-0.00463286	-0.499428	-0.46551	-0.0852511	2.13872	1.66077	0.0491703	-0.0193245
1.30833	0.212078	0.0368137	0.00703368	0.477416	0.988621	-0.301541	-0.0442737	-0.119367	-0.18882	-1.32691	-0.21661	-0.031798	-0.00405963	0.168045	0.172271	0.0637436	-0.663726	0.275939	-0.0719804	0.00213752	-0.486742	-0.0246072	0.0388397	-0.17807	-0.510461	0.147292	1.93039	1.41044	-0.0266009	-0.00463286	-0.481484	-0.481581	-0.0896454	2.14223	1.65641	0.0491703	-0.0193245
1.31667	0.216121	0.0499552	0.0150268	0.475735	0.983848	-0.301876	-0.0105483	-0.134601	-0.185842	-1.39437	-0.197621	-0.031798	-0.00405963	0.167112	0.190175	0.0729365	-0.705357	0.303338	-0.0719804	0.00213752	-0.49537	-0.0367128	0.0159085	-0.19009	-0.501754	0.137189	1.91163	1.40933	-0.0266009	-0.00463286	-0.459214	-0.497906	-0.0910542	2.14166	1.65302	0.0491703	-0.0193245
1.325	0.220265	0.0627637	0.0232127	0.473996	0.979657	-0.30215	0.0233856	-0.145857	-0.177545	-1.45558	-0.177873	-0.031798	-0.00405963	0.162331	0.206766	0.0814004	-0.740537	0.330847	-0.0719804	0.00213752	-0.504461	-0.0479639	-0.00702134	-0.201806	-0.491659	0.12652	1.88965	1.40666	-0.0266009	-0.00463286	-0.432662	-0.513926	-0.0893204	2.13674	1.65108	0.0491703	-0.0193245
1.33333	0.22453	0.0746752	0.0311258	0.472256	0.976161	-0.302331	0.0572276	-0.152557	-0.164357	-1.50965	-0.158123	-0.031798	-0.00405963	0.152783	0.221361	0.0891929	-0.76743	0.356991	-0.0719804	0.00213752	-0.513822	-0.0579658	-0.0292826	-0.213283	-0.480345	0.115514	1.86512	1.40191	-0.0266009	-0.00463286	-0.402258	-0.529027	-0.0845814	2.12769	1.65106	0.0491703	-0.0193245
1.34167	0.228982	0.0851499	0.0383615	0.470577	0.973451	-0.302406	0.0905741	-0.15446	-0.147027	-1.55586	-0.138853	-0.031798	-0.00405963	0.137915	0.233383	0.0964891	-0.785073	0.380796	-0.0719804	0.00213752	-0.523303	-0.0663241	-0.0503265	-0.224635	-0.468167	0.104444	1.83917	1.39455	-0.0266009	-0.00463286	-0.368818	-0.542573	-0.0772641	2.1152	1.65326	0.0491703	-0.0193245
1.35	0.233672	0.0937115	0.0446866	0.469015	0.971588	-0.302388	0.122974	-0.151683	-0.126622	-1.59373	-0.120326	-0.031798	-0.00405963	0.117587	0.242387	0.103556	-0.793306	0.401719	-0.0719804	0.00213752	-0.53276	-0.0726289	-0.0698191	-0.236014	-0.455623	0.0935824	1.81322	1.38424	-0.0266009	-0.00463286	-0.333486	-0.553962	-0.0680122	2.10035	1.65777	0.0491703	-0.0193245
1.35833	0.238553	0.0999863	0.0501091	0.467623	0.970596	-0.302316	0.154037	-0.144692	-0.104487	-1.62293	-0.102661	-0.031798	-0.00405963	0.0921067	0.248078	0.110724	-0.792599	0.419503	-0.0719804	0.00213752	-0.541968	-0.0764576	-0.0876814	-0.2476	-0.443282	0.0831504	1.78886	1.37089	-0.0266009	-0.00463286	-0.297601	-0.562695	-0.0575568	2.08443	1.66442	0.0491703	-0.0193245
1.36667	0.243439	0.103714	0.0548863	0.466444	0.97045	-0.302257	0.183534	-0.13426	-0.0821662	-1.64331	-0.0859057	-0.031798	-0.00405963	0.0622114	0.250301	0.11835	-0.783853	0.434043	-0.0719804	0.00213752	-0.55055	-0.0773988	-0.104062	-0.259583	-0.43171	0.0732783	1.76758	1.35485	-0.0266009	-0.00463286	-0.262536	-0.568432	-0.046567	2.0688	1.67273	0.0491703	-0.0193245
1.375	0.247953	0.104739	0.0594475	0.465505	0.971087	-0.302285	0.211418	-0.121383	-0.0612813	-1.65484	-0.0700727	-0.031798	-0.00405963	0.0289674	0.249027	0.126744	-0.768205	0.44526	-0.0719804	0.00213752	-0.557998	-0.0750927	-0.119256	-0.272142	-0.421409	0.0639881	1.75057	1.33683	-0.0266009	-0.00463286	-0.229536	-0.571033	-0.035527	2.05468	1.68198	0.0491703	-0.0193245
1.38333	0.251617	0.103014	0.064279	0.464826	0.972417	-0.302476	0.23779	-0.107162	-0.0433761	-1.65758	-0.0551469	-0.031798	-0.00405963	-0.00638466	0.244313	0.136079	-0.746865	0.45302	-0.0719804	0.00213752	-0.563739	-0.0692825	-0.133599	-0.285402	-0.412776	0.0552116	1.73863	1.31785	-0.0266009	-0.00463286	-0.199597	-0.570579	-0.0246759	2.04308	1.69133	0.0491703	-0.0193245
1.39167	0.253981	0.0985965	0.0697946	0.464417	0.974331	-0.302888	0.262794	-0.0926756	-0.0297618	-1.6517	-0.0410743	-0.031798	-0.00405963	-0.0426131	0.236285	0.146312	-0.721017	0.457093	-0.0719804	0.00213752	-0.567258	-0.0598683	-0.147366	-0.299409	-0.406084	0.046838	1.73205	1.29901	-0.0266009	-0.00463286	-0.173407	-0.567355	-0.0140237	2.03468	1.69996	0.0491703	-0.0193245
1.4	0.254739	0.0916459	0.0762353	0.46428	0.976725	-0.303556	0.286513	-0.0788536	-0.0213824	-1.63743	-0.0277541	-0.031798	-0.00405963	-0.0786481	0.225141	0.157133	-0.691778	0.457153	-0.0719804	0.00213752	-0.568217	-0.0469536	-0.160724	-0.314095	-0.401478	0.0387611	1.73065	1.28138	-0.0266009	-0.00463286	-0.151354	-0.561817	-0.0034216	2.02987	1.70723	0.0491703	-0.0193245
1.40833	0.253795	0.0824305	0.0836151	0.46441	0.979499	-0.30448	0.308884	-0.0663893	-0.01871	-1.61506	-0.0150425	-0.031798	-0.00405963	-0.113673	0.21118	0.167974	-0.6602	0.452837	-0.0719804	0.00213752	-0.566534	-0.0308728	-0.173714	-0.329281	-0.398978	0.0309232	1.73383	1.26593	-0.0266009	-0.00463286	-0.133569	-0.554528	0.007335	2.02874	1.71274	0.0491703	-0.0193245
1.41667	0.251275	0.0713292	0.0917181	0.464792	0.982569	-0.30563	0.329686	-0.0556779	-0.0216837	-1.58497	-0.00277116	-0.031798	-0.00405963	-0.14714	0.194831	0.178065	-0.627301	0.443831	-0.0719804	0.00213752	-0.562391	-0.0121906	-0.186274	-0.344684	-0.398496	0.0233376	1.74071	1.25338	-0.0266009	-0.00463286	-0.11999	-0.546093	0.0184104	2.0311	1.71645	0.0491703	-0.0193245
1.425	0.24748	0.0588201	0.100137	0.465403	0.985863	-0.306946	0.348568	-0.0467953	-0.0296974	-1.54759	0.00922422	-0.031798	-0.00405963	-0.178742	0.176669	0.186532	-0.594077	0.429944	-0.0719804	0.00213752	-0.556195	0.00833135	-0.198267	-0.359949	-0.399845	0.01609	1.75022	1.2442	-0.0266009	-0.00463286	-0.110427	-0.537095	0.0298626	2.0366	1.71862	0.0491703	-0.0193245
1.43333	0.242821	0.0454511	0.10834	0.466215	0.989325	-0.308349	0.365101	-0.0395138	-0.0416448	-1.50343	0.0210698	-0.031798	-0.00405963	-0.208353	0.157387	0.192514	-0.561487	0.411162	-0.0719804	0.00213752	-0.548499	0.0297985	-0.209516	-0.374685	-0.40276	0.00932388	1.76125	1.23855	-0.0266009	-0.00463286	-0.104611	-0.52804	0.0416201	2.04472	1.7198	0.0491703	-0.0193245
1.44167	0.237732	0.0318001	0.115757	0.467203	0.992907	-0.30975	0.378846	-0.0333607	-0.0560225	-1.45304	0.0328247	-0.031798	-0.00405963	-0.235975	0.137755	0.195282	-0.530429	0.387639	-0.0719804	0.00213752	-0.53992	0.0512692	-0.219834	-0.3885	-0.40692	0.00321742	1.77276	1.23628	-0.0266009	-0.00463286	-0.102226	-0.519325	0.0534983	2.05484	1.72065	0.0491703	-0.0193245
1.45	0.232621	0.0184309	0.121871	0.468349	0.996567	-0.311061	0.389403	-0.0277166	-0.0710874	-1.39698	0.0444724	-0.031798	-0.00405963	-0.261678	0.118546	0.194352	-0.501701	0.35967	-0.0719804	0.00213752	-0.531051	0.0718452	-0.22906	-0.401037	-0.411971	-0.0020418	1.78385	1.23689	-0.0266009	-0.00463286	-0.102926	-0.511219	0.0652448	2.06631	1.72185	0.0491703	-0.0193245
1.45833	0.227808	0.00585454	0.126293	0.469636	1.00026	-0.31221	0.396469	-0.0219398	-0.0850413	-1.33586	0.0559406	-0.031798	-0.00405963	-0.285532	0.100487	0.189566	-0.475988	0.327652	-0.0719804	0.00213752	-0.522386	0.0907463	-0.237084	-0.411996	-0.417553	-0.00628512	1.79381	1.23966	-0.0266009	-0.00463286	-0.106347	-0.503863	0.0765927	2.0785	1.72388	0.0491703	-0.0193245
1.46667	0.223496	-0.00549829	0.128805	0.471052	1.00394	-0.313146	0.399872	-0.0154956	-0.0962342	-1.27028	0.0671518	-0.031798	-0.00405963	-0.307553	0.0841989	0.181103	-0.453869	0.292067	-0.0719804	0.00213752	-0.514274	0.107365	-0.243862	-0.421161	-0.423325	-0.00939124	1.80215	1.24374	-0.0266009	-0.00463286	-0.112103	-0.497276	0.0873107	2.09078	1.72702	0.0491703	-0.0193245
